<?xml version="1.0" encoding="UTF-8" standalone="no"?>
<svg width="96px" height="85px" viewBox="0 0 96 85" version="1.1" xmlns="http://www.w3.org/2000/svg" xmlns:xlink="http://www.w3.org/1999/xlink">
    <!-- Generator: Sketch 41 (35326) - http://www.bohemiancoding.com/sketch -->
    <title>armchair</title>
    <desc>Created with Sketch.</desc>
    <defs></defs>
    <g id="Welcome" stroke="none" stroke-width="1" fill="none" fill-rule="evenodd">
        <g id="Home-HD" transform="translate(-671.000000, -1857.000000)" stroke-width="0.5" stroke="#0067FE" fill="#0067FE">
            <g id="Section-Feature" transform="translate(247.000000, 1858.000000)">
                <g id="Feature-2" transform="translate(339.000000, 0.000000)">
                    <g id="armchair" transform="translate(86.000000, 0.000000)">
                        <g id="Capa_1">
                            <g id="Group">
                                <path d="M69.2391724,64.4108621 L25.2119655,64.4108621 C24.4220345,64.4108621 23.780931,63.7697586 23.780931,62.9798276 L23.780931,39.7341034 C23.780931,33.2372069 18.4946897,27.9566897 12.0006552,27.9566897 C6.96055172,27.9566897 2.86206897,32.0523103 2.86206897,37.0924138 C2.86206897,40.9676552 6.0132069,44.115931 9.88558621,44.115931 C12.824931,44.115931 15.2176207,41.7232414 15.2176207,38.7838966 C15.2176207,36.5886897 13.4316897,34.8027586 11.2364828,34.8027586 C10.4465517,34.8027586 9.80544828,34.1616552 9.80544828,33.3717241 C9.80544828,32.5817931 10.4465517,31.9406897 11.2364828,31.9406897 C15.0086897,31.9406897 18.0796897,35.0088276 18.0796897,38.7838966 C18.0796897,43.3031034 14.4047931,46.978 9.88558621,46.978 C4.4362069,46.978 0,42.5417931 0,37.0924138 C0,30.4753103 5.38355172,25.0946207 11.9977931,25.0946207 C20.0716897,25.0946207 26.6401379,31.663069 26.6401379,39.7341034 L26.6401379,61.5487931 L67.8081379,61.5487931 L67.8081379,39.7341034 C67.8081379,31.663069 74.3765862,25.0946207 82.4476207,25.0946207 C89.0647241,25.0946207 94.4454138,30.4781724 94.4454138,37.0924138 C94.4454138,42.5417931 90.0092069,46.978 84.5598276,46.978 C80.0434828,46.978 76.3685862,43.3031034 76.3685862,38.7838966 C76.3685862,35.0116897 79.4367241,31.9406897 83.208931,31.9406897 C83.9988621,31.9406897 84.6399655,32.5817931 84.6399655,33.3717241 C84.6399655,34.1616552 83.9988621,34.8027586 83.208931,34.8027586 C81.0137241,34.8027586 79.2306552,36.5886897 79.2306552,38.7838966 C79.2306552,41.7232414 81.6204828,44.115931 84.5598276,44.115931 C88.435069,44.115931 91.5833448,40.9647931 91.5833448,37.0924138 C91.5833448,32.0523103 87.4848621,27.9566897 82.4476207,27.9566897 C75.9507241,27.9566897 70.6702069,33.240069 70.6702069,39.7341034 L70.6702069,62.9798276 C70.6702069,63.7697586 70.0319655,64.4108621 69.2391724,64.4108621 Z" id="Shape"></path>
                                <path d="M80.3983793,78.145931 L14.3618621,78.145931 C11.1048276,78.145931 8.45741379,75.4956552 8.45741379,72.2414828 L8.45741379,45.5498276 C8.45741379,44.7598966 9.09851724,44.1187931 9.88844828,44.1187931 C10.6783793,44.1187931 11.3194828,44.7598966 11.3194828,45.5498276 L11.3194828,72.2414828 C11.3194828,73.9186552 12.6875517,75.2838621 14.3618621,75.2838621 L80.3983793,75.2838621 C82.0755517,75.2838621 83.4407586,73.9157931 83.4407586,72.2414828 L83.4407586,45.5498276 C83.4407586,44.7598966 84.0818621,44.1187931 84.8717931,44.1187931 C85.6617241,44.1187931 86.3028276,44.7598966 86.3028276,45.5498276 L86.3028276,72.2414828 C86.3028276,75.4956552 83.6554138,78.145931 80.3983793,78.145931 Z" id="Shape"></path>
                                <path d="M69.2391724,52.2928621 L25.2119655,52.2928621 C24.4220345,52.2928621 23.780931,51.6517586 23.780931,50.8618276 C23.780931,50.0718966 24.4220345,49.4307931 25.2119655,49.4307931 L69.2420345,49.4307931 C70.0319655,49.4307931 70.673069,50.0718966 70.673069,50.8618276 C70.673069,51.6517586 70.0319655,52.2928621 69.2391724,52.2928621 Z" id="Shape"></path>
                                <path d="M25.2119655,82.791069 C24.4220345,82.791069 23.780931,82.1499655 23.780931,81.3600345 L23.780931,77.8482759 C23.780931,77.0583448 24.4220345,76.4172414 25.2119655,76.4172414 C26.0018966,76.4172414 26.643,77.0583448 26.643,77.8482759 L26.643,81.3600345 C26.643,82.1499655 26.0018966,82.791069 25.2119655,82.791069 Z" id="Shape"></path>
                                <path d="M69.2391724,82.791069 C68.4492414,82.791069 67.8081379,82.1499655 67.8081379,81.3600345 L67.8081379,77.8482759 C67.8081379,77.0583448 68.4492414,76.4172414 69.2391724,76.4172414 C70.0291034,76.4172414 70.6702069,77.0583448 70.6702069,77.8482759 L70.6702069,81.3600345 C70.6702069,82.1499655 70.0319655,82.791069 69.2391724,82.791069 Z" id="Shape"></path>
                                <path d="M78.8872069,27.9566897 C78.0972759,27.9566897 77.4561724,27.3155862 77.4561724,26.5256552 L77.4561724,17.1981724 C77.4561724,9.40762069 71.1195517,3.071 63.329,3.071 L31.4255172,3.071 C23.6349655,3.071 17.2983448,9.40762069 17.2983448,17.1981724 L17.2983448,26.5256552 C17.2983448,27.3155862 16.6572414,27.9566897 15.8673103,27.9566897 C15.0773793,27.9566897 14.4362759,27.3155862 14.4362759,26.5256552 L14.4362759,17.1981724 C14.4362759,7.83348276 22.0579655,0.208931034 31.4255172,0.208931034 L63.329,0.208931034 C72.6936897,0.208931034 80.3182414,7.83062069 80.3182414,17.1981724 L80.3182414,26.5256552 C80.3182414,27.3155862 79.68,27.9566897 78.8872069,27.9566897 Z" id="Shape"></path>
                            </g>
                        </g>
                    </g>
                </g>
            </g>
        </g>
    </g>
</svg>