<?xml version="1.0" encoding="UTF-8" standalone="no"?>
<svg width="84px" height="84px" viewBox="0 0 84 84" version="1.1" xmlns="http://www.w3.org/2000/svg" xmlns:xlink="http://www.w3.org/1999/xlink">
    <!-- Generator: Sketch 41 (35326) - http://www.bohemiancoding.com/sketch -->
    <title>clock</title>
    <desc>Created with Sketch.</desc>
    <defs></defs>
    <g id="Welcome" stroke="none" stroke-width="1" fill="none" fill-rule="evenodd">
        <g id="Home-HD" transform="translate(-999.000000, -1857.000000)" stroke-width="0.5" stroke="#0067FE" fill="#0067FE">
            <g id="Section-Feature" transform="translate(247.000000, 1858.000000)">
                <g id="Feature-3" transform="translate(648.000000, 0.000000)">
                    <g id="clock" transform="translate(105.000000, 0.000000)">
                        <g id="Capa_1">
                            <g id="Group">
                                <path d="M41.3239394,82.6403333 C18.5366667,82.6403333 0,64.108697 0,41.3289697 C0,18.5391818 18.5366667,0 41.3239394,0 C64.108697,0 82.6428485,18.5391818 82.6428485,41.3289697 C82.6403333,64.108697 64.1061818,82.6403333 41.3239394,82.6403333 Z M41.3239394,2.51515152 C19.9250303,2.51515152 2.51515152,19.9275455 2.51515152,41.3289697 C2.51515152,62.7228485 19.9250303,80.127697 41.3239394,80.127697 C62.7203333,80.127697 80.127697,62.7228485 80.127697,41.3289697 C80.1251818,19.9275455 62.7203333,2.51515152 41.3239394,2.51515152 Z" id="Shape"></path>
                                <path d="M53.3337879,57.0964545 C52.9716061,57.0964545 52.6144545,56.9405152 52.3654545,56.638697 L40.3556061,42.1262727 C40.1694848,41.9024242 40.0663636,41.6182121 40.0663636,41.3264545 L40.0663636,17.213697 C40.0663636,16.5195152 40.6297576,15.9561212 41.3239394,15.9561212 C42.0181212,15.9561212 42.5815152,16.5195152 42.5815152,17.213697 L42.5815152,40.8762424 L54.3021212,55.0390606 C54.747303,55.5722727 54.6693333,56.3645455 54.1361212,56.8072121 C53.9022121,57.0008788 53.6154848,57.0964545 53.3337879,57.0964545 Z" id="Shape"></path>
                            </g>
                        </g>
                    </g>
                </g>
            </g>
        </g>
    </g>
</svg>