<?xml version="1.0" encoding="UTF-8" standalone="no"?>
<svg width="87px" height="81px" viewBox="0 0 87 81" version="1.1" xmlns="http://www.w3.org/2000/svg" xmlns:xlink="http://www.w3.org/1999/xlink">
    <!-- Generator: Sketch 41 (35326) - http://www.bohemiancoding.com/sketch -->
    <title>printer</title>
    <desc>Created with Sketch.</desc>
    <defs></defs>
    <g id="Welcome" stroke="none" stroke-width="1" fill="none" fill-rule="evenodd">
        <g id="Home-HD" transform="translate(-358.000000, -1859.000000)" stroke-width="0.5" stroke="#0067FE" fill="#0067FE">
            <g id="Section-Feature" transform="translate(247.000000, 1858.000000)">
                <g id="Feature-1">
                    <g id="printer" transform="translate(112.000000, 0.000000)">
                        <g id="Layer_1">
                            <g id="Printer">
                                <path d="M77.3614903,17.4450605 L70.2822581,17.4450605 L70.2822581,6.65171371 C70.2822581,3.69423642 67.8847613,1.296875 64.9274194,1.296875 L20.75,1.296875 C17.7925227,1.296875 15.3951613,3.69423642 15.3951613,6.65171371 L15.3951613,17.4450605 L8.31593091,17.4450605 C3.73111788,17.4450605 0,21.176178 0,25.7609921 L0,60.9295624 C0,65.5143765 3.73111788,69.2454965 8.31593091,69.2454965 L11.5019254,69.2454965 C12.2418302,69.2454965 12.8406351,68.6468245 12.8406351,67.9067868 C12.8406351,67.166882 12.2418302,66.5680771 11.5019254,66.5680771 L8.31593091,66.5680771 C5.20704516,66.5680771 2.67741935,64.0384477 2.67741935,60.9295624 L2.67741935,25.7609921 C2.67741935,22.6521066 5.20704516,20.1224798 8.31593091,20.1224798 L77.3614922,20.1224798 C80.4702379,20.1224798 83,22.6521067 83,25.7609921 L83,60.9295624 C83,64.0384479 80.4702379,66.5680771 77.3614903,66.5680771 L74.9677419,66.5680771 C74.2277043,66.5680771 73.6290323,67.166882 73.6290323,67.9067868 C73.6290323,68.6468245 74.2277043,69.2454965 74.9677419,69.2454965 L77.3614903,69.2454965 C81.9462993,69.2454965 85.6774194,65.5143765 85.6774194,60.9295624 L85.6774194,25.7609921 C85.6774194,21.176178 81.9462993,17.4450605 77.3614903,17.4450605 Z M18.0725806,6.65171371 C18.0725806,5.17538481 19.2736704,3.97429435 20.75,3.97429435 L64.9274194,3.97429435 C66.4037464,3.97429435 67.6048387,5.17538481 67.6048387,6.65171371 L67.6048387,17.3613911 L18.0725806,17.3613911 L18.0725806,6.65171371 Z" id="Shape"></path>
                                <path d="M58.9032258,58.9463985 L26.7741935,58.9463985 C26.0354938,58.9463985 25.4368219,59.5450706 25.4368219,60.2837702 C25.4368219,61.0224698 26.0354938,61.6211418 26.7741935,61.6211418 L58.9032258,61.6211418 C59.6417927,61.6211418 60.2405974,61.0224698 60.2405974,60.2837702 C60.2405974,59.5450706 59.6417927,58.9463985 58.9032258,58.9463985 Z" id="Shape"></path>
                                <path d="M58.9032258,68.3173663 L26.7741935,68.3173663 C26.0354938,68.3173663 25.4368219,68.9160383 25.4368219,69.6547379 C25.4368219,70.3934375 26.0354938,70.9921095 26.7741935,70.9921095 L58.9032258,70.9921095 C59.6417927,70.9921095 60.2405974,70.3934375 60.2405974,69.6547379 C60.2405974,68.9160383 59.6417927,68.3173663 58.9032258,68.3173663 Z" id="Shape"></path>
                                <ellipse id="Oval" cx="10.6549239" cy="27.8994453" rx="2.67741935" ry="2.67741935"></ellipse>
                                <circle id="Oval" cx="19.1244046" cy="27.8994453" r="2.67741935"></circle>
                                <ellipse id="Oval" cx="27.5937513" cy="27.8994453" rx="2.67741935" ry="2.67741935"></ellipse>
                                <path d="M14.7258065,81.703125 L70.9516129,81.703125 L70.9516129,46.8966734 L14.7258065,46.8966734 L14.7258065,81.703125 Z M17.9436628,50.1145322 L67.7337515,50.1145322 L67.7337515,78.4852661 L17.9436628,78.4852661 L17.9436628,50.1145322 Z" id="Shape"></path>
                            </g>
                        </g>
                    </g>
                </g>
            </g>
        </g>
    </g>
</svg>