<?xml version="1.0" encoding="UTF-8" standalone="no"?>
<svg width="73px" height="84px" viewBox="0 0 73 84" version="1.1" xmlns="http://www.w3.org/2000/svg" xmlns:xlink="http://www.w3.org/1999/xlink">
    <!-- Generator: Sketch 41 (35326) - http://www.bohemiancoding.com/sketch -->
    <title>tap</title>
    <desc>Created with Sketch.</desc>
    <defs></defs>
    <g id="Welcome" stroke="none" stroke-width="1" fill="none" fill-rule="evenodd">
        <g id="Home-HD" transform="translate(-369.000000, -754.000000)" stroke="#0067FE" fill="#0067FE">
            <g id="Section-Info" transform="translate(273.000000, 603.000000)">
                <g id="Step-1" transform="translate(0.000000, 152.000000)">
                    <g id="tap" transform="translate(96.000000, 0.000000)">
                        <g id="Capa_1">
                            <g id="Group">
                                <g transform="translate(0.000000, 9.421147)" id="Shape">
                                    <path d="M17.9734187,48.9169501 C17.3185456,48.9169501 16.7870544,48.3893659 16.7870544,47.7393067 L16.7870544,9.20446054 C16.7870544,4.65875715 20.3010654,0.960956986 24.6241768,0.960956986 C28.9472882,0.960956986 32.4612992,4.65875715 32.4612992,9.20446054 L32.4612992,34.2576455 C32.4612992,34.9077046 31.929808,35.4352888 31.2749349,35.4352888 C30.6200618,35.4352888 30.0885706,34.9077046 30.0885706,34.2576455 L30.0885706,9.20446054 C30.0885706,5.95887543 27.6375421,3.31624372 24.6241768,3.31624372 C21.6108116,3.31624372 19.159783,5.95887543 19.159783,9.20446054 L19.159783,47.7393067 C19.159783,48.3893659 18.6282918,48.9169501 17.9734187,48.9169501 Z"></path>
                                    <path d="M23.110376,72.6865038 C22.8066667,72.6865038 22.5029575,72.5710947 22.2704301,72.3426319 L4.68376614,54.8852467 C0.519627551,50.7540737 -0.382009295,44.9247391 2.67406507,41.8911298 C5.73013943,38.8551652 10.7793058,38.9352449 13.932662,42.065421 L18.8109919,46.9078905 C19.2736739,47.3671714 19.2736739,48.1137973 18.8109919,48.5730782 C18.3483098,49.0323591 17.5961549,49.0323591 17.1334728,48.5730782 L12.2551429,43.7306087 C10.0271508,41.5213498 6.48229438,41.44127 4.35158415,43.5563175 C2.25646484,45.6360357 3.17708352,50.0616194 6.36128522,53.2200589 L23.9479492,70.6774442 C24.4106312,71.1367251 24.4106312,71.883351 23.9479492,72.3426319 C23.7177945,72.5710947 23.4140853,72.6865038 23.110376,72.6865038 Z"></path>
                                    <path d="M44.5764511,36.7825129 C43.921578,36.7825129 43.3900869,36.2549286 43.3900869,35.6048695 L43.3900869,29.6671916 C43.3900869,27.0410469 40.9390583,24.9071572 37.925693,24.9071572 C34.909955,24.9071572 32.4589265,27.0434022 32.4589265,29.6671916 L32.4589265,35.6048695 C32.4589265,36.2549286 31.9274353,36.7825129 31.2725622,36.7825129 C30.6176891,36.7825129 30.0861979,36.2549286 30.0861979,35.6048695 L30.0861979,29.6671916 C30.0861979,25.743284 33.6025816,22.5518704 37.925693,22.5518704 C42.2488044,22.5518704 45.7628154,25.743284 45.7628154,29.6671916 L45.7628154,35.6048695 C45.7628154,36.2549286 45.2313242,36.7825129 44.5764511,36.7825129 Z"></path>
                                    <path d="M57.8732219,36.7825129 C57.2183488,36.7825129 56.6868576,36.2549286 56.6868576,35.6048695 L56.6868576,30.6493462 C56.6868576,28.6002468 54.1860017,26.8714663 51.2248365,26.8714663 C48.2636713,26.8714663 45.7604427,28.602602 45.7604427,30.6493462 L45.7604427,35.6048695 C45.7604427,36.2549286 45.2289515,36.7825129 44.5740784,36.7825129 C43.9192053,36.7825129 43.3877141,36.2549286 43.3877141,35.6048695 L43.3877141,30.6493462 C43.3877141,27.2671545 46.9017251,24.5161796 51.2248365,24.5161796 C55.5432024,24.5161796 59.0595861,27.2671545 59.0595861,30.6493462 L59.0595861,35.6048695 C59.0595861,36.2549286 58.5304677,36.7825129 57.8732219,36.7825129 Z"></path>
                                    <path d="M71.1747381,51.8987431 C70.519865,51.8987431 69.9883738,51.3711589 69.9883738,50.7210997 L69.9883738,34.5237929 C69.9883738,31.2782078 67.5373452,28.6355761 64.52398,28.6355761 C61.3041873,28.6355761 59.0595861,30.1618019 59.0595861,31.5302234 L59.0595861,35.6025142 C59.0595861,36.2525733 58.528095,36.7801576 57.8732219,36.7801576 C57.2183488,36.7801576 56.6868576,36.2525733 56.6868576,35.6025142 L56.6868576,31.5302234 C56.6868576,28.586115 60.1296867,26.2802893 64.52398,26.2802893 C68.8447187,26.2802893 72.3611024,29.9780895 72.3611024,34.5237929 L72.3611024,50.7210997 C72.3611024,51.3711589 71.8296112,51.8987431 71.1747381,51.8987431 Z"></path>
                                    <path d="M61.6838239,72.6770826 L23.2029124,72.6770826 C22.5480393,72.6770826 21.9714663,72.1494984 21.9714663,71.4994392 C21.9714663,70.8493801 22.4602484,70.3217959 23.1151215,70.3217959 L61.6814512,70.3217959 C66.2608173,70.3217959 69.9860011,66.6239957 69.9860011,62.0782923 L69.9860011,49.3668098 C69.9860011,48.7167507 70.5174923,48.1891665 71.1723654,48.1891665 C71.8272384,48.1891665 72.3587296,48.7167507 72.3587296,49.3668098 L72.3587296,62.075937 C72.3611024,67.9217587 67.5705634,72.6770826 61.6838239,72.6770826 Z"></path>
                                </g>
                                <path d="M40.6400945,19.6595783 C39.9852214,19.6595783 39.4537302,19.1319941 39.4537302,18.481935 L39.4537302,17.0758288 C39.4537302,8.95951072 32.8005994,2.35528673 24.6241768,2.35528673 C16.4477543,2.35528673 9.79462342,8.95951072 9.79462342,17.0758288 L9.79462342,18.481935 C9.79462342,19.1319941 9.26313223,19.6595783 8.60825915,19.6595783 C7.95338607,19.6595783 7.42189488,19.1319941 7.42189488,18.481935 L7.42189488,17.0758288 C7.42189488,7.65939244 15.1380081,0 24.6241768,0 C34.1103455,0 41.8264587,7.65939244 41.8264587,17.0758288 L41.8264587,18.481935 C41.8264587,19.1343494 41.2949676,19.6595783 40.6400945,19.6595783 Z" id="Shape"></path>
                            </g>
                        </g>
                    </g>
                </g>
            </g>
        </g>
    </g>
</svg>