<?xml version="1.0" encoding="UTF-8" standalone="no"?>
<svg width="67px" height="83px" viewBox="0 0 67 83" version="1.1" xmlns="http://www.w3.org/2000/svg" xmlns:xlink="http://www.w3.org/1999/xlink">
    <!-- Generator: Sketch 41 (35326) - http://www.bohemiancoding.com/sketch -->
    <title>upload</title>
    <desc>Created with Sketch.</desc>
    <defs></defs>
    <g id="Welcome" stroke="none" stroke-width="1" fill="none" fill-rule="evenodd">
        <g id="Home-HD" transform="translate(-686.000000, -754.000000)" stroke="#0067FE" fill="#0067FE">
            <g id="Section-Info" transform="translate(273.000000, 603.000000)">
                <g id="Step-2" transform="translate(328.000000, 152.000000)">
                    <g id="upload" transform="translate(85.000000, 0.000000)">
                        <g id="Capa_1">
                            <g id="Group">
                                <g transform="translate(21.540117, 30.094718)" id="Shape" stroke-width="0.5">
                                    <path d="M11.7904379,30.0004225 L11.7904379,30.0004225 C11.1163038,30.0004225 10.5691805,29.4573211 10.5691805,28.7881425 L10.571623,1.44153179 C10.571623,0.772353264 11.1187463,0.229251853 11.7928804,0.229251853 L11.7928804,0.229251853 C12.4670144,0.229251853 13.0141377,0.772353264 13.0141377,1.44153179 L13.0116952,28.7881425 C13.0116952,29.4573211 12.4645719,30.0004225 11.7904379,30.0004225 Z"></path>
                                    <path d="M22.3250037,13.1085139 C22.0123618,13.1085139 21.6997199,12.9897104 21.4603535,12.7545281 L11.7904379,3.15569561 L2.12052226,12.7545281 C1.6442319,13.2273173 0.869954744,13.2273173 0.393664382,12.7545281 C-0.0826259794,12.281739 -0.0826259794,11.5131535 0.393664382,11.0403643 L10.9282302,0.583237594 C11.4045205,0.11044842 12.1787977,0.11044842 12.6550881,0.583237594 L23.1896539,11.0403643 C23.6659442,11.5131535 23.6659442,12.281739 23.1896539,12.7545281 C22.9502874,12.9897104 22.6376455,13.1085139 22.3250037,13.1085139 Z"></path>
                                </g>
                                <g id="Shape">
                                    <path d="M60.0321257,80.7208717 L6.63142735,80.7208717 C3.26564212,80.7208717 0.525140655,78.0029401 0.525140655,74.659472 L0.525140655,6.06139967 C0.525140655,2.71793161 3.26564212,0 6.63142735,0 L45.4112329,0 C46.0853669,0 46.6324902,0.543101411 46.6324902,1.21227993 C46.6324902,1.88145846 46.0853669,2.42455987 45.4112329,2.42455987 L6.63142735,2.42455987 C4.61146771,2.42455987 2.96765533,4.05628866 2.96765533,6.06139967 L2.96765533,74.659472 C2.96765533,76.664583 4.61146771,78.2963118 6.63142735,78.2963118 L60.0321257,78.2963118 C62.0520853,78.2963118 63.6958977,76.664583 63.6958977,74.659472 L63.6958977,21.1033691 C63.6958977,20.4341906 64.243021,19.8910892 64.9171551,19.8910892 C65.5912891,19.8910892 66.1384124,20.4341906 66.1384124,21.1033691 L66.1384124,74.6618966 C66.1384124,78.0029401 63.4003534,80.7208717 60.0321257,80.7208717 Z"></path>
                                    <path d="M64.9171551,22.315649 L45.4112329,22.315649 C44.7370988,22.315649 44.1899755,21.7725476 44.1899755,21.1033691 L44.1899755,1.73840943 C44.1899755,1.0692309 44.7370988,0.526129491 45.4112329,0.526129491 C46.0853669,0.526129491 46.6324902,1.0692309 46.6324902,1.73840943 L46.6324902,19.8886646 L64.9171551,19.8886646 C65.5912891,19.8886646 66.1384124,20.431766 66.1384124,21.1009445 C66.1384124,21.7701231 65.5937316,22.315649 64.9171551,22.315649 Z" stroke-width="0.5"></path>
                                    <path d="M64.9171551,22.315649 C64.5996281,22.315649 64.2821012,22.1919965 64.0427348,21.9495405 L44.5368126,2.06087589 C44.0678498,1.58323759 44.0776198,0.812227556 44.5612377,0.346712061 C45.0424131,-0.121227993 45.8166903,-0.109105194 46.2880956,0.37095766 L65.7940178,20.2596223 C66.2629806,20.7372606 66.2532106,21.5082706 65.7695927,21.9737861 C65.5326688,22.2016947 65.2249119,22.315649 64.9171551,22.315649 Z" stroke-width="0.5"></path>
                                </g>
                            </g>
                        </g>
                    </g>
                </g>
            </g>
        </g>
    </g>
</svg>