<?xml version="1.0" encoding="UTF-8" standalone="no"?>
<svg width="138px" height="80px" viewBox="0 0 138 80" version="1.1" xmlns="http://www.w3.org/2000/svg" xmlns:xlink="http://www.w3.org/1999/xlink">
    <!-- Generator: Sketch 41 (35326) - http://www.bohemiancoding.com/sketch -->
    <title>van</title>
    <desc>Created with Sketch.</desc>
    <defs></defs>
    <g id="Welcome" stroke="none" stroke-width="1" fill="none" fill-rule="evenodd">
        <g id="Home-HD" transform="translate(-971.000000, -755.000000)" fill="#0067FE">
            <g id="Section-Info" transform="translate(273.000000, 603.000000)">
                <g id="Step-3" transform="translate(639.000000, 152.000000)">
                    <g id="van" transform="translate(59.000000, 0.000000)">
                        <g id="Capa_1">
                            <g id="Group">
                                <g transform="translate(17.669255, 50.979561)" id="Shape">
                                    <path d="M76.9805272,16.6803885 L26.7114964,16.6803885 C25.4923178,16.6803885 24.5028395,15.6738134 24.5028395,14.433569 C24.5028395,13.1933246 25.4923178,12.1867494 26.7114964,12.1867494 L76.9805272,12.1867494 C78.1997058,12.1867494 79.1891841,13.1933246 79.1891841,14.433569 C79.1891841,15.6738134 78.1997058,16.6803885 76.9805272,16.6803885 Z"></path>
                                    <path d="M14.7494107,28.8491634 C6.93076531,28.8491634 0.574250791,22.3828166 0.574250791,14.433569 C0.574250791,6.47982766 6.93076531,0.0134809175 14.7494107,0.0134809175 C22.5636388,0.0134809175 28.9201533,6.47982766 28.9201533,14.433569 C28.9201533,22.378323 22.5592215,28.8491634 14.7494107,28.8491634 Z M14.7494107,4.50712007 C9.36912252,4.50712007 4.99156457,8.96031647 4.99156457,14.433569 C4.99156457,19.9068215 9.36912252,24.3555242 14.7494107,24.3555242 C20.1296989,24.3555242 24.5028395,19.9068215 24.5028395,14.433569 C24.5028395,8.96031647 20.1296989,4.50712007 14.7494107,4.50712007 Z"></path>
                                    <path d="M88.9426129,28.8491634 C81.1283848,28.8491634 74.7718703,22.3828166 74.7718703,14.433569 C74.7718703,6.47982766 81.1283848,0.0134809175 88.9426129,0.0134809175 C96.7612583,0.0134809175 103.117773,6.47982766 103.117773,14.433569 C103.117773,22.378323 96.7568409,28.8491634 88.9426129,28.8491634 Z M88.9426129,4.50712007 C83.5623247,4.50712007 79.1891841,8.96031647 79.1891841,14.433569 C79.1891841,19.9068215 83.5623247,24.3555242 88.9426129,24.3555242 C94.3229011,24.3555242 98.700459,19.9068215 98.700459,14.433569 C98.700459,8.96031647 94.3229011,4.50712007 88.9426129,4.50712007 Z"></path>
                                </g>
                                <path d="M94.6674515,67.65995 L44.3851688,67.65995 C43.1659902,67.65995 42.1765119,66.6533748 42.1765119,65.4131304 C42.1765119,64.172886 43.1659902,63.1663108 44.3851688,63.1663108 L94.6674515,63.1663108 C95.8866301,63.1663108 96.8761084,64.172886 96.8761084,65.4131304 C96.8761084,66.6533748 95.8866301,67.65995 94.6674515,67.65995 Z" id="Shape"></path>
                                <path d="M127.364408,67.65995 L118.565119,67.65995 C117.34594,67.65995 116.356462,66.6533748 116.356462,65.4131304 C116.356462,64.172886 117.34594,63.1663108 118.565119,63.1663108 L127.364408,63.1663108 C130.752488,63.1663108 133.508892,60.36228 133.508892,56.9156588 L133.508892,48.2384416 C133.508892,45.0389705 132.227871,41.9113976 129.99271,39.6510971 L120.084675,29.6347755 C119.899148,29.4460426 119.748959,29.2258543 119.634109,28.9831978 L111.510669,11.0985139 C109.871846,7.49012171 106.289404,5.16241662 102.388916,5.16241662 L11.4143388,5.16241662 C7.55802387,5.16241662 4.41731378,8.35739406 4.41731378,12.280341 L4.41731378,56.9201524 C4.41731378,60.3667736 7.16930026,63.1708045 10.5573799,63.1708045 L20.4344935,63.1708045 C21.6536721,63.1708045 22.6431504,64.1773796 22.6431504,65.4176241 C22.6431504,66.6578685 21.6536721,67.6644436 20.4344935,67.6644436 L10.5573799,67.6644436 C4.73536037,67.65995 0,62.8427688 0,56.9156588 L0,12.280341 C0,5.87690525 5.11966667,0.668777469 11.4143388,0.668777469 L102.388916,0.668777469 C108.007739,0.668777469 113.162744,4.02103228 115.526007,9.2111855 L123.481589,26.7318846 L133.111333,36.465107 C136.172532,39.5567307 137.930623,43.8526497 137.930623,48.2384416 L137.930623,56.9156588 C137.926205,62.8427688 133.186428,67.65995 127.364408,67.65995 Z" id="Shape"></path>
                                <path d="M94.9634115,36.7706744 L31.3408412,36.7706744 C30.1216626,36.7706744 29.1321844,35.7640993 29.1321844,34.5238549 C29.1321844,33.2836105 30.1216626,32.2770353 31.3408412,32.2770353 L94.9634115,32.2770353 C96.1825902,32.2770353 97.1720684,33.2836105 97.1720684,34.5238549 C97.1720684,35.7640993 96.1825902,36.7706744 94.9634115,36.7706744 Z" id="Shape"></path>
                            </g>
                        </g>
                    </g>
                </g>
            </g>
        </g>
    </g>
</svg>